static_grf.mot
version=1
nRows=12
nColumns 19
inDegrees=yes
endheader
time	1_ground_force_vx	1_ground_force_vy	1_ground_force_vz	1_ground_force_px	1_ground_force_py	1_ground_force_pz	1_ground_torque_x	1_ground_torque_y	1_ground_torque_z	2_ground_force_vx	2_ground_force_vy	2_ground_force_vz	2_ground_force_px	2_ground_force_py	2_ground_force_pz	2_ground_torque_x	2_ground_torque_y	2_ground_torque_z
            1.351500	          -10.353131	          424.153159	          -37.867954	           -0.259674	            0.006041	           -0.363999	           -0.056926	            2.332172	           -0.208214	            8.546373	          479.600352	           41.830803	           -0.302809	            0.005455	           -0.715850	           -0.002410	           -0.135215	           -0.011793
            1.352000	          -10.352627	          424.512707	          -37.637132	           -0.259745	            0.006040	           -0.363750	           -0.056633	            2.322245	           -0.205889	            8.409085	          478.679582	           41.686794	           -0.302940	            0.005454	           -0.715664	           -0.002865	           -0.163101	           -0.014204
            1.352500	          -10.444460	          424.693182	          -37.681984	           -0.259803	            0.006040	           -0.363838	           -0.055337	            2.250129	           -0.199648	            8.170286	          479.966946	           41.926133	           -0.302796	            0.005456	           -0.715901	           -0.002128	           -0.125023	           -0.010921
            1.353000	          -10.214805	          424.151809	          -37.547308	           -0.259848	            0.006041	           -0.364007	           -0.055373	            2.299272	           -0.203539	            8.123498	          479.966274	           42.066937	           -0.302690	            0.005456	           -0.715898	           -0.000999	           -0.059022	           -0.005173
            1.353500	          -10.352627	          424.512707	          -37.637132	           -0.259889	            0.006040	           -0.363791	           -0.055408	            2.272025	           -0.201437	            8.357583	          479.968459	           41.691413	           -0.302644	            0.005456	           -0.715939	           -0.001667	           -0.095732	           -0.008316
            1.354000	          -10.169582	          425.053963	          -37.726980	           -0.259797	            0.006041	           -0.364100	           -0.053849	            2.250693	           -0.199767	            8.455476	          478.862219	           42.156712	           -0.302717	            0.005455	           -0.715592	           -0.002749	           -0.155706	           -0.013708
            1.354500	          -10.444559	          425.233949	          -37.679665	           -0.259594	            0.006040	           -0.363787	           -0.055078	            2.242413	           -0.198699	            8.312185	          479.599004	           41.971687	           -0.302617	            0.005456	           -0.715732	           -0.001924	           -0.111007	           -0.009715
            1.355000	          -10.353328	          425.234753	          -37.863316	           -0.260056	            0.006040	           -0.363763	           -0.056085	            2.303535	           -0.205109	            8.359761	          479.414531	           42.111795	           -0.302720	            0.005454	           -0.715530	           -0.002148	           -0.123189	           -0.010821
            1.355500	          -10.444559	          425.233949	          -37.679665	           -0.260027	            0.006040	           -0.363877	           -0.056157	            2.286329	           -0.202590	            8.266000	          479.414695	           41.971050	           -0.302763	            0.005455	           -0.715686	           -0.001765	           -0.102386	           -0.008964
            1.356000	          -10.306883	          425.053543	          -37.634927	           -0.259900	            0.006040	           -0.363783	           -0.054554	            2.249800	           -0.199201	            8.311438	          479.783815	           41.784632	           -0.302862	            0.005455	           -0.715699	           -0.002198	           -0.126858	           -0.011048
            1.356500	          -10.307386	          424.693995	          -37.865749	           -0.259906	            0.006041	           -0.363902	           -0.056074	            2.310416	           -0.205997	            8.311582	          479.782643	           42.113129	           -0.302863	            0.005456	           -0.716012	           -0.002055	           -0.118610	           -0.010411
            1.357000	          -10.398470	          424.512698	          -37.637019	           -0.259939	            0.006041	           -0.364012	           -0.055524	            2.266747	           -0.200968	            8.030462	          479.781795	           42.066320	           -0.302666	            0.005456	           -0.715777	           -0.002072	           -0.123820	           -0.010856
